<?xml version="1.0" encoding="UTF-8"?>
<!DOCTYPE svg PUBLIC "-//W3C//DTD SVG 1.1//EN" "http://www.w3.org/Graphics/SVG/1.1/DTD/svg11.dtd">
<svg xmlns="http://www.w3.org/2000/svg" version="1.1" width="512" height="512" style="shape-rendering:geometricPrecision; text-rendering:geometricPrecision; image-rendering:optimizeQuality; fill-rule:evenodd; clip-rule:evenodd" xmlns:xlink="http://www.w3.org/1999/xlink">
<g><path style="opacity:1" fill="#010101" d="M 360.5,55.5 C 359.176,72.7355 359.176,90.0688 360.5,107.5C 360.5,108.167 360.5,108.833 360.5,109.5C 358.451,109.706 358.117,110.539 359.5,112C 358.565,115.503 357.565,119.003 356.5,122.5C 359.879,134.705 363.545,146.705 367.5,158.5C 368.712,167.446 368.712,176.446 367.5,185.5C 368.959,185.433 370.292,185.766 371.5,186.5C 372.058,187.79 373.058,188.623 374.5,189C 372.203,189.018 369.869,188.851 367.5,188.5C 367.167,188.5 366.833,188.5 366.5,188.5C 365.698,187.115 365.031,187.282 364.5,189C 361.873,198.085 358.039,206.585 353,214.5C 346.923,222.07 340.423,229.07 333.5,235.5C 332.198,237.822 330.198,239.155 327.5,239.5C 322.867,241.775 318.2,244.108 313.5,246.5C 312.369,248.074 312.202,249.741 313,251.5C 313.353,254.152 314.52,256.152 316.5,257.5C 318.974,263.258 320.641,269.258 321.5,275.5C 320.903,275.735 320.57,276.235 320.5,277C 322.66,286.457 324.66,295.957 326.5,305.5C 326.747,306.713 327.414,307.38 328.5,307.5C 330.486,317.691 331.486,328.024 331.5,338.5C 330.6,345.824 330.434,353.491 331,361.5C 332.342,362.902 333.176,362.569 333.5,360.5C 334.269,357.885 334.603,355.219 334.5,352.5C 335.606,338.804 338.439,325.47 343,312.5C 345.261,308.304 347.761,304.304 350.5,300.5C 354.572,298.792 357.905,296.126 360.5,292.5C 361.659,290.75 363.326,289.75 365.5,289.5C 372.06,287.787 378.727,287.287 385.5,288C 394.804,290.26 396.804,295.26 391.5,303C 387.619,304.19 383.619,304.857 379.5,305C 377.881,305.236 376.881,306.069 376.5,307.5C 375.833,307.5 375.167,307.5 374.5,307.5C 368.376,309.777 363.543,313.777 360,319.5C 356.78,326.228 354.28,333.228 352.5,340.5C 352.543,341.416 352.876,342.083 353.5,342.5C 352.76,353.348 351.094,364.015 348.5,374.5C 344.477,385.213 339.31,395.547 333,405.5C 332.171,426.004 332.337,446.337 333.5,466.5C 333.965,470.792 333.132,474.792 331,478.5C 329.352,479.717 327.519,480.55 325.5,481C 305.169,481.5 284.836,481.667 264.5,481.5C 232.669,480.668 200.669,480.168 168.5,480C 165.569,477.9 163.236,475.4 161.5,472.5C 161.5,471.5 161.5,470.5 161.5,469.5C 162.139,468.903 162.472,468.07 162.5,467C 161.82,462.523 161.32,458.023 161,453.5C 160.722,452.584 160.222,451.918 159.5,451.5C 159.5,449.5 159.5,447.5 159.5,445.5C 160.83,439.537 161.496,433.204 161.5,426.5C 161.496,419.796 160.83,413.463 159.5,407.5C 159.5,403.5 159.5,399.5 159.5,395.5C 160.161,394.282 160.828,392.949 161.5,391.5C 161.833,387.833 162.167,384.167 162.5,380.5C 162.207,373.332 161.874,366.665 161.5,360.5C 161.435,353.476 161.768,346.476 162.5,339.5C 163.15,339.196 163.817,338.863 164.5,338.5C 164.833,336.5 165.167,334.5 165.5,332.5C 166.048,329.214 166.048,326.047 165.5,323C 167.75,320.072 168.084,316.906 166.5,313.5C 167.523,304.028 169.19,294.694 171.5,285.5C 173.164,284.257 174.331,282.59 175,280.5C 177.122,269.635 179.956,258.968 183.5,248.5C 182.405,246.38 180.739,244.88 178.5,244C 177.207,243.51 175.873,243.343 174.5,243.5C 168.486,241.165 163.152,237.831 158.5,233.5C 156.975,229.312 153.975,226.979 149.5,226.5C 148.478,222.276 146.311,218.609 143,215.5C 139.185,208.868 136.185,201.868 134,194.5C 133.329,193.748 132.496,193.414 131.5,193.5C 131.5,193.167 131.5,192.833 131.5,192.5C 130.048,191.698 128.382,191.198 126.5,191C 130.374,190.403 132.041,188.07 131.5,184C 131.333,182.167 131.167,180.333 131,178.5C 130.329,177.748 129.496,177.414 128.5,177.5C 128.5,176.167 128.5,174.833 128.5,173.5C 130.208,164.719 131.542,155.719 132.5,146.5C 132.489,144.955 132.156,143.622 131.5,142.5C 131.5,142.167 131.5,141.833 131.5,141.5C 132.75,141.423 133.583,140.756 134,139.5C 136.451,133.033 138.284,126.367 139.5,119.5C 139.099,114.427 138.266,109.427 137,104.5C 136.329,103.748 135.496,103.414 134.5,103.5C 132.14,82.18 131.973,60.8466 134,39.5C 134.991,38.0611 136.324,37.0611 138,36.5C 155.409,44.7817 171.909,54.4483 187.5,65.5C 195.378,61.7279 203.378,58.2279 211.5,55C 216.399,53.3094 221.399,52.1427 226.5,51.5C 234.903,51.0656 243.237,50.3989 251.5,49.5C 258.915,48.6751 266.249,49.3418 273.5,51.5C 280.821,54.9412 288.487,57.6079 296.5,59.5C 300.843,61.0878 305.01,63.0878 309,65.5C 323.202,53.7346 338.535,43.7346 355,35.5C 357.504,36.1513 358.837,37.818 359,40.5C 360.05,45.4482 360.55,50.4482 360.5,55.5 Z"/></g>
<g><path style="opacity:0.298" fill="#5d5d5e" d="M 251.5,49.5 C 243.237,50.3989 234.903,51.0656 226.5,51.5C 234.812,48.7133 243.145,48.0466 251.5,49.5 Z"/></g>
<g><path style="opacity:0.643" fill="#454646" d="M 273.5,51.5 C 281.635,53.1083 289.301,55.775 296.5,59.5C 288.487,57.6079 280.821,54.9412 273.5,51.5 Z"/></g>
<g><path style="opacity:1" fill="#303030" d="M 360.5,55.5 C 363.138,72.8322 363.138,90.1656 360.5,107.5C 359.176,90.0688 359.176,72.7355 360.5,55.5 Z"/></g>
<g><path style="opacity:1" fill="#f3f3f3" d="M 328.5,127.5 C 329.5,127.5 330.5,127.5 331.5,127.5C 334.401,142.623 330.401,155.456 319.5,166C 300.571,178.428 284.404,175.595 271,157.5C 270.251,156.365 270.417,155.365 271.5,154.5C 276.378,151.562 281.378,148.895 286.5,146.5C 287.167,146.833 287.833,147.167 288.5,147.5C 289.511,151.335 291.178,154.835 293.5,158C 296.308,158.92 298.475,158.087 300,155.5C 301.821,149.763 302.988,143.929 303.5,138C 311.963,134.424 320.296,130.924 328.5,127.5 Z"/></g>
<g><path style="opacity:1" fill="#f3f4f4" d="M 166.5,128.5 C 176.292,132.251 186.292,135.584 196.5,138.5C 196.276,144.319 197.11,149.985 199,155.5C 202,159.5 205,159.5 208,155.5C 209.549,152.688 210.382,149.688 210.5,146.5C 215.891,148.693 221.224,151.193 226.5,154C 227.022,154.561 227.355,155.228 227.5,156C 214.433,175.338 198.1,178.671 178.5,166C 168.658,155.457 164.658,142.957 166.5,128.5 Z"/></g>
<g><path style="opacity:0.831" fill="#2b2b2c" d="M 134.5,103.5 C 135.496,103.414 136.329,103.748 137,104.5C 138.266,109.427 139.099,114.427 139.5,119.5C 138.284,126.367 136.451,133.033 134,139.5C 133.583,140.756 132.75,141.423 131.5,141.5C 132.951,134.643 135.285,128.143 138.5,122C 137.009,115.891 135.675,109.725 134.5,103.5 Z"/></g>
<g><path style="opacity:0.761" fill="#343434" d="M 360.5,109.5 C 360.483,114.254 359.816,118.921 358.5,123.5C 362.941,134.818 365.941,146.485 367.5,158.5C 363.545,146.705 359.879,134.705 356.5,122.5C 357.565,119.003 358.565,115.503 359.5,112C 358.117,110.539 358.451,109.706 360.5,109.5 Z"/></g>
<g><path style="opacity:0.808" fill="#2b2b2c" d="M 131.5,142.5 C 132.156,143.622 132.489,144.955 132.5,146.5C 131.542,155.719 130.208,164.719 128.5,173.5C 127.497,163.172 128.497,152.838 131.5,142.5 Z"/></g>
<g><path style="opacity:0.925" fill="#464747" d="M 371.5,186.5 C 384.179,190.423 396.013,196.09 407,203.5C 407.591,204.483 407.257,205.15 406,205.5C 393.545,198.746 380.712,193.08 367.5,188.5C 369.869,188.851 372.203,189.018 374.5,189C 373.058,188.623 372.058,187.79 371.5,186.5 Z"/></g>
<g><path style="opacity:0.746" fill="#424342" d="M 128.5,177.5 C 129.496,177.414 130.329,177.748 131,178.5C 131.167,180.333 131.333,182.167 131.5,184C 132.041,188.07 130.374,190.403 126.5,191C 128.382,191.198 130.048,191.698 131.5,192.5C 118.879,195.476 107.212,200.643 96.5,208C 94.4658,209.205 92.4658,209.372 90.5,208.5C 102.004,199.765 114.671,193.099 128.5,188.5C 129.079,184.904 129.079,181.238 128.5,177.5 Z"/></g>
<g><path style="opacity:0.467" fill="#353637" d="M 366.5,188.5 C 363.733,201.035 358.066,212.035 349.5,221.5C 352.752,226.334 355.752,231.334 358.5,236.5C 357.635,237.583 356.635,237.749 355.5,237C 353.023,232.898 350.19,229.065 347,225.5C 342.896,229.446 338.396,232.78 333.5,235.5C 340.423,229.07 346.923,222.07 353,214.5C 358.039,206.585 361.873,198.085 364.5,189C 365.031,187.282 365.698,187.115 366.5,188.5 Z"/></g>
<g><path style="opacity:0.698" fill="#383939" d="M 131.5,193.5 C 132.496,193.414 133.329,193.748 134,194.5C 136.185,201.868 139.185,208.868 143,215.5C 146.311,218.609 148.478,222.276 149.5,226.5C 153.975,226.979 156.975,229.312 158.5,233.5C 156.163,231.334 153.663,229.334 151,227.5C 148.45,230.049 146.283,232.882 144.5,236C 143.552,236.483 142.552,236.649 141.5,236.5C 142.824,232.354 144.824,228.52 147.5,225C 139.933,215.701 134.6,205.201 131.5,193.5 Z"/></g>
<g><path style="opacity:0.729" fill="#313232" d="M 174.5,243.5 C 175.873,243.343 177.207,243.51 178.5,244C 180.739,244.88 182.405,246.38 183.5,248.5C 179.956,258.968 177.122,269.635 175,280.5C 174.331,282.59 173.164,284.257 171.5,285.5C 173.914,273.089 177.248,260.922 181.5,249C 179.495,246.726 177.162,244.892 174.5,243.5 Z"/></g>
<g><path style="opacity:0.139" fill="#3e3f3f" d="M 327.5,239.5 C 323.238,242.974 318.571,245.974 313.5,248.5C 314.801,251.427 315.801,254.427 316.5,257.5C 314.52,256.152 313.353,254.152 313,251.5C 312.202,249.741 312.369,248.074 313.5,246.5C 318.2,244.108 322.867,241.775 327.5,239.5 Z"/></g>
<g><path style="opacity:0.784" fill="#2e2f2e" d="M 321.5,275.5 C 325.067,285.78 327.4,296.447 328.5,307.5C 327.414,307.38 326.747,306.713 326.5,305.5C 324.66,295.957 322.66,286.457 320.5,277C 320.57,276.235 320.903,275.735 321.5,275.5 Z"/></g>
<g><path style="opacity:0.416" fill="#707070" d="M 360.5,292.5 C 357.905,296.126 354.572,298.792 350.5,300.5C 353.095,296.874 356.428,294.208 360.5,292.5 Z"/></g>
<g><path style="opacity:0.3" fill="#3f4043" d="M 376.5,307.5 C 376.881,306.069 377.881,305.236 379.5,305C 383.619,304.857 387.619,304.19 391.5,303C 396.804,295.26 394.804,290.26 385.5,288C 378.727,287.287 372.06,287.787 365.5,289.5C 372.731,285.509 380.397,284.676 388.5,287C 400.398,293.596 400.398,299.93 388.5,306C 384.472,306.392 380.472,306.892 376.5,307.5 Z"/></g>
<g><path style="opacity:0.435" fill="#313131" d="M 166.5,313.5 C 168.084,316.906 167.75,320.072 165.5,323C 166.048,326.047 166.048,329.214 165.5,332.5C 165.167,334.5 164.833,336.5 164.5,338.5C 163.817,338.863 163.15,339.196 162.5,339.5C 163.333,330.621 164.666,321.955 166.5,313.5 Z"/></g>
<g><path style="opacity:0.198" fill="#3f3f40" d="M 374.5,307.5 C 369.57,310.595 365.403,314.595 362,319.5C 358.044,326.88 355.211,334.547 353.5,342.5C 352.876,342.083 352.543,341.416 352.5,340.5C 354.28,333.228 356.78,326.228 360,319.5C 363.543,313.777 368.376,309.777 374.5,307.5 Z"/></g>
<g><path style="opacity:1" fill="#292b2c" d="M 331.5,338.5 C 332.324,342.312 332.824,346.312 333,350.5C 333.278,351.416 333.778,352.082 334.5,352.5C 334.603,355.219 334.269,357.885 333.5,360.5C 333.176,362.569 332.342,362.902 331,361.5C 330.434,353.491 330.6,345.824 331.5,338.5 Z"/></g>
<g><path style="opacity:0.602" fill="#343535" d="M 348.5,374.5 C 346.377,385.372 342.211,395.372 336,404.5C 335.285,425.055 334.452,445.722 333.5,466.5C 332.337,446.337 332.171,426.004 333,405.5C 339.31,395.547 344.477,385.213 348.5,374.5 Z"/></g>
<g><path style="opacity:0.812" fill="#2c2d2d" d="M 161.5,360.5 C 161.874,366.665 162.207,373.332 162.5,380.5C 162.167,384.167 161.833,387.833 161.5,391.5C 160.828,392.949 160.161,394.282 159.5,395.5C 159.904,383.665 160.571,371.998 161.5,360.5 Z"/></g>
<g><path style="opacity:0.184" fill="#2a2c2c" d="M 159.5,407.5 C 160.83,413.463 161.496,419.796 161.5,426.5C 161.496,433.204 160.83,439.537 159.5,445.5C 159.5,432.833 159.5,420.167 159.5,407.5 Z"/></g>
<g><path style="opacity:0.184" fill="#3d3d3d" d="M 159.5,451.5 C 160.222,451.918 160.722,452.584 161,453.5C 161.32,458.023 161.82,462.523 162.5,467C 162.472,468.07 162.139,468.903 161.5,469.5C 160.423,463.688 159.757,457.688 159.5,451.5 Z"/></g>
<g><path style="opacity:1" fill="#333333" d="M 161.5,472.5 C 163.236,475.4 165.569,477.9 168.5,480C 200.669,480.168 232.669,480.668 264.5,481.5C 250.115,481.886 235.282,482.22 220,482.5C 202.493,482.25 184.993,481.75 167.5,481C 163.177,479.866 161.177,477.033 161.5,472.5 Z"/></g>
</svg>
